<svg id="money_icon_set" data-name="money icon set" xmlns="http://www.w3.org/2000/svg" viewBox="0 0 390.77 364.37"><polygon points="328.73 276.91 244.43 291.6 281.65 315.57 338.13 305.61 328.73 276.91"/><polygon points="300.42 327.67 357.38 364.37 342.9 320.18 300.42 327.67"/><polygon points="225.62 279.47 323.96 262.34 314.69 234.06 188.89 255.81 225.62 279.47"/><path d="M159,236.54l11.07,7.14,139.87-24.19-10.77-32.88-137.7,23.8c-6.48,10.58-8.54,19.3-4.78,24.12a8.38,8.38,0,0,0,2.31,2Z"/><path d="M294.37,172,283.61,139.2l0,0a8.22,8.22,0,0,0-1.38-2.72c-8.51-10.9-43.5,2.22-78.17,29.29A226.14,226.14,0,0,0,175,192.69Z"/><path d="M170.72,11.79a12.08,12.08,0,0,0-15-8.29h0a12.1,12.1,0,0,0-8.29,15l51,126Z"/><path d="M24.65,109.41a12.09,12.09,0,0,1-4.28-16.56h0a12.1,12.1,0,0,1,16.56-4.3L178.6,163.36Z"/><path d="M79.09,181.17a8,8,0,0,1-8.48-7.58h0a8,8,0,0,1,7.58-8.47l90.23,4.4Z"/><path d="M227.93,45.59a8,8,0,0,1,10-5.44h0a8,8,0,0,1,5.44,10l-34.45,83.53Z"/><path d="M123,62.08a8.52,8.52,0,0,0-12-1.51h0a8.52,8.52,0,0,0-1.52,11.95l66.22,69.11Z"/><path d="M385.75,88,349.52,58.58,353.24,12,314,37.39,270.93,19.47l12,45.12-30.36,35.46,46.62,2.53,24.34,39.84,16.82-43.55ZM304.9,93,274,91.31l20.14-23.52-8-29.91,28.59,11.88,26-16.81-2.46,30.86,24,19.53L332.2,90.53l-11.15,28.88Z"/><path d="M94.53,217.56l-32.65-4.74-14.61-29.6-14.61,29.6L0,217.56l23.63,23-5.58,32.53,29.22-15.36,29.21,15.36L70.9,240.6ZM47.27,249.87,27.9,260.06l3.7-21.57L15.92,223.21l21.66-3.15,9.69-19.62L57,220.06l21.65,3.15L62.94,238.49l3.7,21.57Z"/><polygon points="352.3 150.69 367.2 159.82 383.17 152.72 379.09 169.72 390.77 182.71 373.35 184.08 364.61 199.21 357.92 183.06 340.83 179.41 354.12 168.07 352.3 150.69"/><polygon points="147.02 261.97 151.64 276.56 166.28 281.01 153.83 289.91 154.12 305.21 141.81 296.13 127.34 301.13 132.18 286.61 122.96 274.4 138.26 274.51 147.02 261.97"/><polygon points="209.79 9.28 213.18 19.97 223.91 23.24 214.79 29.76 215 40.98 205.97 34.32 195.37 37.99 198.91 27.34 192.16 18.39 203.37 18.47 209.79 9.28"/><polygon points="51.66 0 71.57 12.2 92.9 2.72 87.45 25.42 103.06 42.78 79.79 44.61 68.1 64.82 59.17 43.24 36.34 38.38 54.09 23.22 51.66 0"/></svg>