<svg id="money_icon_set" data-name="money icon set" xmlns="http://www.w3.org/2000/svg" viewBox="0 0 333.05 388.2"><path d="M301.19,31.68A31.57,31.57,0,1,1,269.73,0,31.57,31.57,0,0,1,301.19,31.68Zm-269.46,0A31.57,31.57,0,1,0,63.19,0,31.57,31.57,0,0,0,31.73,31.68ZM166.57,50.85A31.57,31.57,0,1,0,198,82.52,31.56,31.56,0,0,0,166.57,50.85ZM89.84,233.18l-1.91-59.29a48.07,48.07,0,0,1,33.56-47.28c1.93-.6,3.93-1.16,6-1.67l.07-1.87c.6-15.7-9-30.17-23.76-35q-3-1-6.5-1.86l0-.08a137.82,137.82,0,0,0-33-3.61H63.26a137.91,137.91,0,0,0-33,3.61v.09c-2.3.58-4.46,1.2-6.46,1.85C9,92.9-.58,107.37,0,123.07L2.3,182.32a45.89,45.89,0,0,0,15.23,32.13L30.07,226.2l.54-1.13.93,95.79a16.56,16.56,0,0,0,14.92,16.41h0a16.52,16.52,0,0,0,18-16.62l-.38-83.55.38,83.58a16.52,16.52,0,0,0,18,16.5h0a16.57,16.57,0,0,0,14.83-16.52l.11-61A56.27,56.27,0,0,1,89.84,233.18ZM309.27,88q-3-1-6.5-1.86l0-.08a137.91,137.91,0,0,0-33-3.61h-1a137.91,137.91,0,0,0-33,3.61v.09c-2.3.58-4.46,1.2-6.46,1.85-14.77,4.86-24.36,19.33-23.76,35l.09,2.23c1.86.49,3.68,1,5.45,1.58a48,48,0,0,1,33.25,47.54L242,233.67a56.19,56.19,0,0,1-5.56,22.24l.63,65a16.45,16.45,0,1,0,32.89-.21v0A16.51,16.51,0,0,0,288,337.18h0a16.57,16.57,0,0,0,14.83-16.52L303,226.2l12.54-11.75a45.85,45.85,0,0,0,15.23-32.13L333,123.07C333.63,107.37,324,92.9,309.27,88ZM207.21,138.89c-9.8-3.13-23.1-5.5-40.94-5.55s-31.18,2.23-41,5.31a35.33,35.33,0,0,0-24.72,34.84l1.9,59.28A45.25,45.25,0,0,0,117.9,265l12.83,11.83h.45l.24,94.68A16.75,16.75,0,0,0,146.7,388h0a16.82,16.82,0,0,0,18.61-16.49l.39-88.52-.39,88.49a16.83,16.83,0,0,0,18.52,16.62h0a16.78,16.78,0,0,0,15.38-16.41l.94-94.67h.57l12.93-11.74a45.36,45.36,0,0,0,15.7-32.13l2.34-59.25A35.31,35.31,0,0,0,207.21,138.89Z"/></svg>