<svg id="money_icon_set" data-name="money icon set" xmlns="http://www.w3.org/2000/svg" viewBox="0 0 512.2 395.17"><path d="M314.61,0C209.87,0,123.94,81.94,117.47,185.08c5-7.07,8.72-13.56,10.46-19.27a22.69,22.69,0,0,1,7.59-11.16c7.81-6.21,17.84-15,27.64-23.6a14.17,14.17,0,0,1,.93-8.79c2.1-5.06,13.59-19.18,25.16-29.06A162.91,162.91,0,0,1,314.61,34.36c90,0,163.23,73.23,163.23,163.23S404.62,360.81,314.61,360.81C239.27,360.81,175.72,309.48,157,240c-7.17,5.43-13.67,9.87-19.72,14-3.4,2.31-6.65,4.53-9.85,6.79,26.41,78.07,100.32,134.44,187.18,134.44,109,0,197.59-88.63,197.59-197.58S423.56,0,314.61,0Z"/><path d="M303.7,236.13a39.67,39.67,0,0,0,10.91,1.55,40.09,40.09,0,1,0-15.41-77.1c6.31,4.82,12.33,9.29,18.17,13.61,6.91,5.11,13.45,9.95,19.89,15l10,7.8-8.6,9.34A194.72,194.72,0,0,1,303.7,236.13Z"/><path d="M314.61,309.27A111.68,111.68,0,1,0,242.74,112.2c9.23,8.84,17.78,16.6,25.75,23.48a77.29,77.29,0,1,1-3.93,120.72,193.5,193.5,0,0,1-20.32,6.47l-1.43.38h-8l-3.5-5.53c-4.94-8.49-16.14-44-22-67.38-2.11,2.4-4.25,4.74-6.38,7.07,0,.06,0,.12,0,.18A111.82,111.82,0,0,0,314.61,309.27Z"/><path d="M208.86,94.85c-3.47-3.61-37.61,30.53-34.07,34.07l4,4c-12.3,10.76-25.82,22.82-36,30.91a11,11,0,0,0-3.68,5.43c-12.8,41.94-103.55,107.4-137.38,169C-6.94,354,19.41,366.8,23.86,365.42c5.57-1.73,20.51-7.55,20.51-7.55a13.75,13.75,0,0,0,5.2-6.71c14.31-40.05,33.15-66.51,48.57-81.46,23-22.29,40.76-27.58,71.18-55.11,16.34-14.78,32.46-32.8,44.18-47.33l3.78,3.74s0,0,0,0c.53,10.9,18.18,70.58,23.94,80.5a.08.08,0,0,0,.09,0,182.8,182.8,0,0,0,88.75-53.16C299.88,174.83,265.92,154.26,208.86,94.85Z"/></svg>